<svg width="32" height="32" viewBox="0 0 32 32" fill="none" xmlns="http://www.w3.org/2000/svg">
<g clip-path="url(#clip0_44_256)">
<path d="M11.9999 1.33334V5.33334M19.9999 1.33334V5.33334M11.9999 26.6667V30.6667M19.9999 26.6667V30.6667M26.6666 12H30.6666M26.6666 18.6667H30.6666M1.33325 12H5.33325M1.33325 18.6667H5.33325M7.99992 5.33334H23.9999C25.4727 5.33334 26.6666 6.52725 26.6666 8.00001V24C26.6666 25.4728 25.4727 26.6667 23.9999 26.6667H7.99992C6.52716 26.6667 5.33325 25.4728 5.33325 24V8.00001C5.33325 6.52725 6.52716 5.33334 7.99992 5.33334ZM11.9999 12H19.9999V20H11.9999V12Z" stroke="#8391ED" stroke-width="2.5" stroke-linecap="round" stroke-linejoin="round"/>
</g>
<defs>
<clipPath id="clip0_44_256">
<rect width="32" height="32" fill="white"/>
</clipPath>
</defs>
</svg>
